<?xml version="1.0" encoding="utf-8"?>
<svg viewBox="0 0 512 512" stroke="currentColor" fill="currentColor" stroke-width="0" xmlns="http://www.w3.org/2000/svg">
  <path d="M 68 240 C 48.118 240 32 223.882 32 204 L 32 68 C 32 48.118 48.118 32 68 32 L 204 32 C 204.24 32 204.479 32.002 204.717 32.007 L 307.283 32.007 C 307.521 32.002 307.76 32 308 32 L 444 32 C 463.882 32 480 48.118 480 68 L 480 204 C 480 223.882 463.882 240 444 240 Z M 204 480 L 68 480 C 48.118 480 32 463.882 32 444 L 32 308 C 32 288.118 48.118 272 68 272 L 187.841 272 L 187.841 271.982 L 342.55 271.982 L 342.55 272 L 444 272 C 463.882 272 480 288.118 480 308 L 480 444 C 480 463.882 463.882 480 444 480 L 308 480 C 307.547 480 307.095 479.992 306.646 479.975 L 205.354 479.975 C 204.905 479.992 204.453 480 204 480 Z"/>
</svg>