<svg width="512" height="512" viewBox="0 0 512 512" style="color:currentColor" xmlns="http://www.w3.org/2000/svg" class="h-full w-full"><rect width="512" height="512" x="0" y="0" rx="30" fill="transparent" stroke="transparent" stroke-width="0" stroke-opacity="100%" paint-order="stroke"></rect><svg width="256px" height="256px" viewBox="0 0 16 16" fill="currentColor" x="128" y="128" role="img" style="display:inline-block;vertical-align:middle" xmlns="http://www.w3.org/2000/svg"><g fill="currentColor"><path fill="currentColor" d="M5.854 4.854a.5.5 0 1 0-.708-.708l-3.5 3.5a.5.5 0 0 0 0 .708l3.5 3.5a.5.5 0 0 0 .708-.708L2.707 8l3.147-3.146zm4.292 0a.5.5 0 0 1 .708-.708l3.5 3.5a.5.5 0 0 1 0 .708l-3.5 3.5a.5.5 0 0 1-.708-.708L13.293 8l-3.147-3.146z"/></g></svg></svg>