<svg width="512" height="512" viewBox="0 0 512 512" style="color:currentColor" xmlns="http://www.w3.org/2000/svg" class="h-full w-full"><rect width="512" height="512" x="0" y="0" rx="30" fill="transparent" stroke="transparent" stroke-width="0" stroke-opacity="100%" paint-order="stroke"></rect><svg width="256px" height="256px" viewBox="0 0 512 512" fill="currentColor" x="128" y="128" role="img" style="display:inline-block;vertical-align:middle" xmlns="http://www.w3.org/2000/svg"><g fill="currentColor"><path fill="currentColor" d="M448 96v320h32a16 16 0 0 1 16 16v32a16 16 0 0 1-16 16H320a16 16 0 0 1-16-16v-32a16 16 0 0 1 16-16h32V288H160v128h32a16 16 0 0 1 16 16v32a16 16 0 0 1-16 16H32a16 16 0 0 1-16-16v-32a16 16 0 0 1 16-16h32V96H32a16 16 0 0 1-16-16V48a16 16 0 0 1 16-16h160a16 16 0 0 1 16 16v32a16 16 0 0 1-16 16h-32v128h192V96h-32a16 16 0 0 1-16-16V48a16 16 0 0 1 16-16h160a16 16 0 0 1 16 16v32a16 16 0 0 1-16 16z"/></g></svg></svg>