<svg width="512" height="512" viewBox="0 0 512 512" style="color:currentColor" xmlns="http://www.w3.org/2000/svg" class="h-full w-full"><rect width="512" height="512" x="0" y="0" rx="30" fill="transparent" stroke="transparent" stroke-width="0" stroke-opacity="100%" paint-order="stroke"></rect><svg width="256px" height="256px" viewBox="0 0 448 512" fill="currentColor" x="128" y="128" role="img" style="display:inline-block;vertical-align:middle" xmlns="http://www.w3.org/2000/svg"><g fill="currentColor"><path fill="currentColor" d="M448 48v32a16 16 0 0 1-16 16h-48v368a16 16 0 0 1-16 16h-32a16 16 0 0 1-16-16V96h-32v368a16 16 0 0 1-16 16h-32a16 16 0 0 1-16-16V352h-32a160 160 0 0 1 0-320h240a16 16 0 0 1 16 16z"/></g></svg></svg>