<svg width="512" height="512" viewBox="0 0 512 512" style="color:currentColor" xmlns="http://www.w3.org/2000/svg" class="h-full w-full"><rect width="512" height="512" x="0" y="0" rx="30" fill="transparent" stroke="transparent" stroke-width="0" stroke-opacity="100%" paint-order="stroke"></rect><svg width="256px" height="256px" viewBox="0 0 16 16" fill="currentColor" x="128" y="128" role="img" style="display:inline-block;vertical-align:middle" xmlns="http://www.w3.org/2000/svg"><g fill="currentColor"><path fill="currentColor" d="M8.21 13c2.106 0 3.412-1.087 3.412-2.823c0-1.306-.984-2.283-2.324-2.386v-.055a2.176 2.176 0 0 0 1.852-2.14c0-1.51-1.162-2.46-3.014-2.46H3.843V13H8.21zM5.908 4.674h1.696c.963 0 1.517.451 1.517 1.244c0 .834-.629 1.32-1.73 1.32H5.908V4.673zm0 6.788V8.598h1.73c1.217 0 1.88.492 1.88 1.415c0 .943-.643 1.449-1.832 1.449H5.907z"/></g></svg></svg>